<svg width="11" height="11" viewBox="0 0 11 11" fill="none" xmlns="http://www.w3.org/2000/svg">
<path d="M5.0625 0C4.06123 0 3.08245 0.29691 2.24993 0.853185C1.4174 1.40946 0.768531 2.20011 0.385362 3.12516C0.00219351 4.05022 -0.0980609 5.06812 0.0972768 6.05014C0.292614 7.03217 0.774771 7.93423 1.48277 8.64223C2.19078 9.35023 3.09283 9.83239 4.07486 10.0277C5.05689 10.2231 6.07479 10.1228 6.99984 9.73964C7.92489 9.35647 8.71554 8.7076 9.27182 7.87507C9.82809 7.04255 10.125 6.06377 10.125 5.0625C10.1235 3.7203 9.58967 2.4335 8.64059 1.48442C7.69151 0.535336 6.4047 0.00148885 5.0625 0ZM7.13672 6.34125C7.3742 5.957 7.49998 5.51421 7.49998 5.0625C7.49998 4.61079 7.3742 4.168 7.13672 3.78375L8.21485 2.70563C8.72451 3.38569 9 4.21265 9 5.0625C9 5.91235 8.72451 6.73931 8.21485 7.41937L7.13672 6.34125ZM3.75 5.0625C3.75 4.80291 3.82698 4.54915 3.9712 4.33331C4.11542 4.11747 4.3204 3.94925 4.56023 3.84991C4.80006 3.75057 5.06396 3.72458 5.31856 3.77522C5.57316 3.82586 5.80702 3.95087 5.99058 4.13442C6.17414 4.31798 6.29914 4.55184 6.34978 4.80644C6.40043 5.06104 6.37443 5.32494 6.27509 5.56477C6.17575 5.8046 6.00753 6.00958 5.79169 6.1538C5.57585 6.29802 5.32209 6.375 5.0625 6.375C4.71441 6.375 4.38057 6.23672 4.13442 5.99058C3.88828 5.74444 3.75 5.4106 3.75 5.0625ZM7.41938 1.91016L6.34125 2.98828C5.957 2.7508 5.51421 2.62502 5.0625 2.62502C4.61079 2.62502 4.168 2.7508 3.78375 2.98828L2.70563 1.91016C3.38569 1.40049 4.21265 1.125 5.0625 1.125C5.91236 1.125 6.73931 1.40049 7.41938 1.91016ZM1.91016 2.70703L2.98828 3.78516C2.75081 4.16941 2.62502 4.61219 2.62502 5.06391C2.62502 5.51562 2.75081 5.95841 2.98828 6.34266L1.91016 7.42078C1.40049 6.74072 1.125 5.91376 1.125 5.06391C1.125 4.21405 1.40049 3.3871 1.91016 2.70703ZM2.70703 8.21625L3.78516 7.13812C4.16941 7.3756 4.6122 7.50139 5.06391 7.50139C5.51562 7.50139 5.95841 7.3756 6.34266 7.13812L7.42078 8.21625C6.74072 8.72592 5.91376 9.00141 5.06391 9.00141C4.21405 9.00141 3.3871 8.72592 2.70703 8.21625Z" fill="#D97706"/>
</svg>
